<?xml version="1.0" encoding="utf-8"?>
<!-- Generator: Adobe Illustrator 28.0.0, SVG Export Plug-In . SVG Version: 6.00 Build 0)  -->
<svg version="1.1" id="Layer_1" xmlns="http://www.w3.org/2000/svg" xmlns:xlink="http://www.w3.org/1999/xlink" x="0px" y="0px"
	 viewBox="0 0 391.92 63.3" style="enable-background:new 0 0 391.92 63.3;" xml:space="preserve">
<style type="text/css">
	.st0{fill:#FFFFFF;}
	.st1{fill:#EF4453;}
	.st2{fill:#9C9C9C;}
</style>
<g>
	<path class="st0" d="M16.86,19.32c4.16,0,7.72,1.56,10.68,4.68c2.96,3.12,4.44,6.89,4.44,11.31c0,4.42-1.48,8.2-4.44,11.34
		c-2.96,3.14-6.52,4.71-10.68,4.71c-2.64,0-5.12-0.68-7.44-2.04v1.14h-6.9V9h6.9v12.36C11.74,20,14.22,19.32,16.86,19.32z
		 M25.02,35.34c0-2.92-0.98-5.28-2.94-7.08c-0.04-0.04-0.07-0.07-0.09-0.09c-0.02-0.02-0.05-0.03-0.09-0.03
		c-0.16-0.16-0.3-0.28-0.42-0.36c-0.12-0.12-0.3-0.26-0.54-0.42c-0.92-0.56-1.88-0.9-2.88-1.02H18c-0.2-0.04-0.38-0.06-0.54-0.06
		c-0.04,0-0.08,0-0.12,0c-0.04,0-0.08,0-0.12,0c-0.04,0-0.1,0-0.18,0h-0.12h-0.06H16.8c-0.56,0.04-1.12,0.16-1.68,0.36
		c-2.36,0.68-4.02,2.32-4.98,4.92c-0.28,0.76-0.48,1.56-0.6,2.4c0,0.08,0,0.14,0,0.18c-0.04,0.2-0.06,0.34-0.06,0.42
		c-0.04,0.28-0.06,0.52-0.06,0.72v0.06c0,3.08,1.1,5.52,3.3,7.32c1.04,0.96,2.28,1.52,3.72,1.68c0.04,0,0.11,0.01,0.21,0.03
		c0.1,0.02,0.17,0.03,0.21,0.03c0.04,0,0.08,0,0.12,0c0.04,0,0.07,0,0.09,0c0.02,0,0.07,0,0.15,0c0.08,0,0.24-0.02,0.48-0.06
		c2.04-0.12,3.77-1.05,5.19-2.79C24.31,39.81,25.02,37.74,25.02,35.34z"/>
	<path class="st0" d="M64.14,37.32H41.22c0.44,2.08,1.41,3.79,2.91,5.13c1.5,1.34,3.21,2.01,5.13,2.01c1.48,0,2.83-0.39,4.05-1.17
		c1.22-0.78,2.21-1.83,2.97-3.15h7.26c-1,3.24-2.8,5.88-5.4,7.92c-2.6,2.04-5.56,3.06-8.88,3.06c-4.12,0-7.64-1.55-10.56-4.65
		c-2.92-3.1-4.38-6.84-4.38-11.22s1.46-8.12,4.38-11.22c2.92-3.1,6.44-4.65,10.56-4.65c3.32,0,6.28,1.02,8.88,3.06
		c2.6,2.04,4.4,4.68,5.4,7.92c0.48,1.56,0.72,3.18,0.72,4.86C64.26,35.94,64.22,36.64,64.14,37.32z M42.3,30.36h13.98
		c-0.48-0.88-1.08-1.64-1.8-2.28c-0.72-0.64-1.52-1.14-2.4-1.5c-0.88-0.36-1.82-0.54-2.82-0.54c-1.44,0-2.77,0.39-3.99,1.17
		C44.05,27.99,43.06,29.04,42.3,30.36z"/>
	<path class="st0" d="M90.84,18.84h7.56L84.84,51h-7.56L63.36,18.84h7.62L81,42.06L90.84,18.84z"/>
	<path class="st0" d="M101.34,43.02c0.56,0,1.08,0.1,1.56,0.3c0.48,0.2,0.9,0.48,1.26,0.84c0.36,0.36,0.65,0.79,0.87,1.29
		c0.22,0.5,0.33,1.03,0.33,1.59c0,1.08-0.39,2.02-1.17,2.82c-0.78,0.8-1.73,1.2-2.85,1.2c-1.12,0-2.07-0.4-2.85-1.2
		c-0.78-0.8-1.17-1.75-1.17-2.85c0-1.1,0.39-2.04,1.17-2.82C99.27,43.41,100.22,43.02,101.34,43.02z"/>
	<path class="st1" d="M135.48,18.84c3.04,0,5.64,1.09,7.8,3.27c2.16,2.18,3.24,4.79,3.24,7.83V51h-7.02V29.94
		c0-1.12-0.39-2.07-1.17-2.85c-0.78-0.78-1.73-1.17-2.85-1.17c-1.12,0-2.08,0.39-2.88,1.17c-0.8,0.78-1.2,1.73-1.2,2.85V51h-7.02
		V29.94c0-1.12-0.39-2.07-1.17-2.85c-0.78-0.78-1.73-1.17-2.85-1.17c-1.12,0-2.08,0.39-2.88,1.17c-0.8,0.78-1.2,1.73-1.2,2.85V51
		h-7.02V29.94c0-3.04,1.08-5.65,3.24-7.83c2.16-2.18,4.78-3.27,7.86-3.27c2.88,0,5.4,1,7.56,3
		C130.04,19.84,132.56,18.84,135.48,18.84z"/>
	<path class="st1" d="M179.7,37.32h-22.92c0.44,2.08,1.41,3.79,2.91,5.13c1.5,1.34,3.21,2.01,5.13,2.01c1.48,0,2.83-0.39,4.05-1.17
		c1.22-0.78,2.21-1.83,2.97-3.15h7.26c-1,3.24-2.8,5.88-5.4,7.92c-2.6,2.04-5.56,3.06-8.88,3.06c-4.12,0-7.64-1.55-10.56-4.65
		c-2.92-3.1-4.38-6.84-4.38-11.22s1.46-8.12,4.38-11.22c2.92-3.1,6.44-4.65,10.56-4.65c3.32,0,6.28,1.02,8.88,3.06
		c2.6,2.04,4.4,4.68,5.4,7.92c0.48,1.56,0.72,3.18,0.72,4.86C179.82,35.94,179.78,36.64,179.7,37.32z M157.86,30.36h13.98
		c-0.48-0.88-1.08-1.64-1.8-2.28c-0.72-0.64-1.52-1.14-2.4-1.5c-0.88-0.36-1.82-0.54-2.82-0.54c-1.44,0-2.77,0.39-3.99,1.17
		C159.61,27.99,158.62,29.04,157.86,30.36z"/>
	<path class="st1" d="M183.42,18.84h16.14v7.02h-9.24V51h-6.9V18.84z"/>
	<path class="st1" d="M215.64,44.4c1.12,0,2.18-0.24,3.18-0.72c1-0.48,1.87-1.14,2.61-1.98c0.74-0.84,1.31-1.8,1.71-2.88h7.26
		c-0.76,3.64-2.52,6.64-5.28,9c-2.76,2.36-5.92,3.54-9.48,3.54c-4.16,0-7.72-1.56-10.68-4.68c-2.96-3.12-4.44-6.9-4.44-11.34
		S202,27.12,204.96,24c2.96-3.12,6.52-4.68,10.68-4.68c3.56,0,6.72,1.18,9.48,3.54c2.76,2.36,4.52,5.36,5.28,9h-7.26
		c-0.4-1.08-0.97-2.04-1.71-2.88c-0.74-0.84-1.61-1.5-2.61-1.98c-1-0.48-2.06-0.72-3.18-0.72c-1.48,0-2.84,0.41-4.08,1.23
		c-1.24,0.82-2.22,1.92-2.94,3.3c-0.72,1.38-1.08,2.89-1.08,4.53c0,1.64,0.36,3.15,1.08,4.53c0.72,1.38,1.7,2.48,2.94,3.3
		C212.8,43.99,214.16,44.4,215.64,44.4z"/>
	<path class="st1" d="M249.06,18.9c4.16,0,7.72,1.56,10.68,4.68s4.44,6.9,4.44,11.34v16.02h-7.02V34.92c0-2.48-0.79-4.61-2.37-6.39
		c-1.58-1.78-3.49-2.67-5.73-2.67c-2.24,0-4.15,0.89-5.73,2.67c-1.58,1.78-2.37,3.91-2.37,6.39V51h-7.02V34.92c0-0.08,0-0.15,0-0.21
		s0-0.14,0-0.24c0-0.1,0.02-0.17,0.06-0.21V9h6.9v12.42C243.38,19.74,246.1,18.9,249.06,18.9z"/>
	<path class="st1" d="M271.68,43.02c0.56,0,1.08,0.1,1.56,0.3c0.48,0.2,0.9,0.48,1.26,0.84c0.36,0.36,0.65,0.79,0.87,1.29
		c0.22,0.5,0.33,1.03,0.33,1.59c0,1.08-0.39,2.02-1.17,2.82c-0.78,0.8-1.73,1.2-2.85,1.2c-1.12,0-2.07-0.4-2.85-1.2
		c-0.78-0.8-1.17-1.75-1.17-2.85c0-1.1,0.39-2.04,1.17-2.82C269.61,43.41,270.56,43.02,271.68,43.02z"/>
	<path class="st2" d="M293.1,15.18c-3.52,0.12-5.28,1.78-5.28,4.98v1.14h5.28v7.02h-5.28V51h-6.96V28.32h-1.98V21.3h1.98v-1.32
		c0-3.56,1.02-6.27,3.06-8.13c2.04-1.86,5.02-2.79,8.94-2.79h0.24V15.18z"/>
	<path class="st2" d="M299.28,23.58c2.96-3.12,6.52-4.68,10.68-4.68s7.72,1.56,10.68,4.68c2.96,3.12,4.44,6.9,4.44,11.34
		s-1.48,8.22-4.44,11.34c-2.96,3.12-6.52,4.68-10.68,4.68s-7.72-1.56-10.68-4.68c-2.96-3.12-4.44-6.9-4.44-11.34
		S296.32,26.7,299.28,23.58z M304.23,41.31c1.58,1.78,3.49,2.67,5.73,2.67s4.15-0.89,5.73-2.67c1.58-1.78,2.37-3.91,2.37-6.39
		c0-2.48-0.79-4.61-2.37-6.39c-1.58-1.78-3.49-2.67-5.73-2.67s-4.15,0.89-5.73,2.67c-1.58,1.78-2.37,3.91-2.37,6.39
		C301.86,37.4,302.65,39.53,304.23,41.31z"/>
	<path class="st2" d="M331.8,23.58c2.96-3.12,6.52-4.68,10.68-4.68s7.72,1.56,10.68,4.68c2.96,3.12,4.44,6.9,4.44,11.34
		s-1.48,8.22-4.44,11.34c-2.96,3.12-6.52,4.68-10.68,4.68s-7.72-1.56-10.68-4.68c-2.96-3.12-4.44-6.9-4.44-11.34
		S328.83,26.7,331.8,23.58z M336.75,41.31c1.58,1.78,3.49,2.67,5.73,2.67s4.15-0.89,5.73-2.67c1.58-1.78,2.37-3.91,2.37-6.39
		c0-2.48-0.79-4.61-2.37-6.39c-1.58-1.78-3.49-2.67-5.73-2.67s-4.15,0.89-5.73,2.67c-1.58,1.78-2.37,3.91-2.37,6.39
		C334.38,37.4,335.17,39.53,336.75,41.31z"/>
	<path class="st2" d="M382.44,9h6.9v41.46h-6.9v-1.14c-2.32,1.36-4.8,2.04-7.44,2.04c-4.16,0-7.72-1.57-10.68-4.71
		c-2.96-3.14-4.44-6.92-4.44-11.34c0-4.42,1.48-8.19,4.44-11.31c2.96-3.12,6.52-4.68,10.68-4.68c2.64,0,5.12,0.68,7.44,2.04V9z
		 M382.44,35.34v-0.06c0-0.24-0.02-0.48-0.06-0.72c0-0.12,0-0.26,0-0.42c-0.04-0.08-0.06-0.14-0.06-0.18
		c-0.08-0.84-0.28-1.64-0.6-2.4c-0.96-2.6-2.6-4.24-4.92-4.92c-0.56-0.2-1.14-0.32-1.74-0.36H375h-0.06c-0.04,0-0.09,0-0.15,0
		c-0.06,0-0.11,0-0.15,0h-0.18c-0.2,0-0.4,0.02-0.6,0.06c-1.04,0.12-2,0.46-2.88,1.02h-0.06c-0.2,0.16-0.38,0.3-0.54,0.42
		c-0.12,0.08-0.26,0.2-0.42,0.36c-0.08,0.04-0.12,0.08-0.12,0.12c-1.96,1.8-2.94,4.16-2.94,7.08c0,2.4,0.7,4.47,2.1,6.21
		c1.4,1.74,3.12,2.67,5.16,2.79c0.24,0.04,0.4,0.06,0.48,0.06c0.04,0,0.07,0,0.09,0c0.02,0,0.04,0,0.06,0c0.02,0,0.05,0,0.09,0
		s0.08,0,0.12,0s0.12-0.01,0.24-0.03c0.12-0.02,0.2-0.03,0.24-0.03c1.4-0.16,2.64-0.72,3.72-1.68
		C381.36,40.86,382.44,38.42,382.44,35.34z"/>
</g>
</svg>
